<?xml version="1.0" standalone="no"?>
<!DOCTYPE svg PUBLIC "-//W3C//DTD SVG 20010904//EN"
 "http://www.w3.org/TR/2001/REC-SVG-20010904/DTD/svg10.dtd">
<svg version="1.0" xmlns="http://www.w3.org/2000/svg"
 width="192.000000pt" height="192.000000pt" viewBox="0 0 192.000000 192.000000"
 preserveAspectRatio="xMidYMid meet">

<g transform="translate(0.000000,192.000000) scale(0.100000,-0.100000)"
fill="#000000" stroke="none">
<path d="M797 1905 c-254 -48 -470 -184 -620 -392 -55 -76 -123 -226 -149
-329 -31 -126 -31 -322 0 -448 26 -103 94 -253 149 -329 257 -354 708 -494
1116 -347 251 91 476 316 567 567 88 245 76 507 -35 741 -50 106 -95 171 -174
255 -116 123 -294 226 -461 267 -113 28 -290 34 -393 15z m45 -568 l-82 -82
82 -82 83 -83 -45 -45 -44 -45 -83 82 -83 83 -83 -83 -83 -82 -44 45 -45 45
83 83 82 82 -82 82 -82 83 39 40 c21 22 44 40 49 40 6 0 46 -35 88 -77 l78
-78 82 83 83 82 45 -45 45 -45 -83 -83z m502 149 c84 -35 145 -120 153 -217 9
-95 -48 -194 -139 -240 -164 -84 -358 39 -358 225 1 100 56 187 145 227 48 22
151 25 199 5z m-598 -581 c104 -31 174 -127 174 -239 0 -74 -23 -127 -76 -178
-51 -49 -100 -68 -174 -68 -71 0 -112 15 -164 60 -146 128 -96 359 91 426 50
17 89 17 149 -1z m587 -67 l83 82 44 -45 44 -45 -82 -83 -82 -82 82 -82 82
-83 -39 -40 c-21 -22 -44 -40 -49 -40 -6 0 -46 35 -88 77 l-78 78 -78 -78
c-42 -42 -82 -77 -88 -77 -5 0 -28 18 -49 40 l-39 40 82 83 82 82 -82 82 -82
83 44 45 44 45 83 -82 83 -83 83 83z"/>
<path d="M1191 1363 c-23 -12 -40 -31 -53 -61 -17 -39 -18 -48 -6 -85 16 -50
65 -87 115 -87 134 0 170 184 47 236 -43 18 -61 17 -103 -3z"/>
<path d="M609 773 c-38 -23 -59 -64 -59 -113 0 -34 6 -48 33 -75 67 -67 162
-52 199 32 17 40 18 49 6 86 -24 75 -115 110 -179 70z"/>
</g>
</svg>
